<svg width="74" height="24" viewBox="0 0 74 24" fill="none" xmlns="http://www.w3.org/2000/svg">
<rect x="0.5" y="0.5" width="73" height="23" rx="11.5" fill="#F5F7F9"/>
<path d="M17.5 12.499H14.5V15.499H13.5V12.499H10.5V11.499H13.5V8.49902H14.5V11.499H17.5V12.499Z" fill="#879298"/>
<path d="M30.7422 7.15234H23.5586V8.06641H29.6406V8.07812C29.6348 9.05664 29.6348 10.1523 29.3242 11.6523H22.3867V12.5664H26.582V17.0078H27.707V12.5664H31.9609V11.6523H30.4492C30.7422 10.1582 30.7422 9.07422 30.7422 8.07812V7.15234ZM42.332 11.6758H38.1016V10.5273H41.2656V9.61328H35.0664V7.80859H41.1602V6.91797H33.9531V10.5273H36.9883V11.6758H32.7578V12.5781H42.332V11.6758ZM33.8242 14.4062H40.0703V17.0547H41.1719V13.5039H33.8242V14.4062ZM51.3086 6.49609H50.207V16.9961H51.3086V11.6758H52.9961V10.75H51.3086V6.49609ZM43.0703 9.05078H49.293V8.13672H46.7734V6.63672H45.6602V8.13672H43.0703V9.05078ZM43.6094 12.2617C43.6094 13.7031 44.7109 14.7051 46.2227 14.7109C47.7285 14.7051 48.8301 13.7031 48.8359 12.2617C48.8301 10.832 47.7285 9.82422 46.2227 9.82422C44.7109 9.82422 43.6094 10.832 43.6094 12.2617ZM44.6758 12.2617C44.6699 11.3652 45.3262 10.7441 46.2227 10.7383C47.1133 10.7441 47.7637 11.3652 47.7695 12.2617C47.7637 13.1758 47.1133 13.7852 46.2227 13.7734C45.3262 13.7852 44.6699 13.1758 44.6758 12.2617ZM62.2305 6.49609H61.1055V16.9961H62.2305V6.49609ZM53.6055 14.1836L54.1914 15.0859C57.7949 13.3574 59.1016 10.6973 59.1016 7.62109H54.1094V8.51172H57.9766C57.7598 10.9609 56.3945 12.8535 53.6055 14.1836Z" fill="#879298"/>
<rect x="0.5" y="0.5" width="73" height="23" rx="11.5" stroke="#D2DAE0"/>
</svg>
