<svg width="75" height="24" viewBox="0 0 75 24" fill="none" xmlns="http://www.w3.org/2000/svg">
    <rect x="1.16699" y="0.5" width="73" height="23" rx="11.5" fill="#F5F7F9"/>
    <path d="M18.167 12.499H15.167V15.499H14.167V12.499H11.167V11.499H14.167V8.49902H15.167V11.499H18.167V12.499Z" fill="#879298"/>
    <path d="M28.2451 8.23047H26.1943V6.80078H25.0928V8.23047H23.0303V9.13281H28.2451V8.23047ZM23.3701 12.1797C23.3643 13.6152 24.3252 14.623 25.6436 14.6172C26.9736 14.623 27.9229 13.6152 27.9287 12.1797C27.9229 10.7676 26.9736 9.76562 25.6436 9.76562C24.3252 9.76562 23.3643 10.7676 23.3701 12.1797ZM24.3545 12.1797C24.3486 11.3066 24.8877 10.6973 25.6436 10.6914C26.3994 10.6973 26.9443 11.3066 26.9443 12.1797C26.9443 13.0703 26.3994 13.668 25.6436 13.668C24.8877 13.668 24.3486 13.0703 24.3545 12.1797ZM28.7256 16.5039H29.7803V11.7812H30.9873V16.9961H32.042V6.49609H30.9873V10.8672H29.7803V6.73047H28.7256V16.5039ZM37.292 9.58984V8.47656H39.6826V7.55078H33.7646V8.47656H36.167V9.58984C36.1553 11.4004 34.9834 13.3691 33.4014 14.1133L34.0459 14.9922C35.2705 14.3945 36.2549 13.1172 36.7412 11.6172C37.2275 13.0176 38.2119 14.1777 39.4482 14.7227L40.0576 13.8555C38.4404 13.1641 37.2861 11.3477 37.292 9.58984ZM41.0068 16.9961H42.1201V6.49609H41.0068V16.9961ZM51.9756 6.49609H50.874V16.9961H51.9756V11.6758H53.6631V10.75H51.9756V6.49609ZM43.7373 9.05078H49.96V8.13672H47.4404V6.63672H46.3271V8.13672H43.7373V9.05078ZM44.2764 12.2617C44.2764 13.7031 45.3779 14.7051 46.8896 14.7109C48.3955 14.7051 49.4971 13.7031 49.5029 12.2617C49.4971 10.832 48.3955 9.82422 46.8896 9.82422C45.3779 9.82422 44.2764 10.832 44.2764 12.2617ZM45.3428 12.2617C45.3369 11.3652 45.9932 10.7441 46.8896 10.7383C47.7803 10.7441 48.4307 11.3652 48.4365 12.2617C48.4307 13.1758 47.7803 13.7852 46.8896 13.7734C45.9932 13.7852 45.3369 13.1758 45.3428 12.2617ZM62.8975 6.49609H61.7725V16.9961H62.8975V6.49609ZM54.2725 14.1836L54.8584 15.0859C58.4619 13.3574 59.7686 10.6973 59.7686 7.62109H54.7764V8.51172H58.6436C58.4268 10.9609 57.0615 12.8535 54.2725 14.1836Z" fill="#879298"/>
    <rect x="1.16699" y="0.5" width="73" height="23" rx="11.5" stroke="#D2DAE0"/>
</svg>
