<svg width="62" height="24" viewBox="0 0 62 24" fill="none" xmlns="http://www.w3.org/2000/svg">
<rect x="0.5" y="0.5" width="61" height="23" rx="11.5" fill="#F5F7F9"/>
<path d="M17.5 12.499H14.5V15.499H13.5V12.499H10.5V11.499H13.5V8.49902H14.5V11.499H17.5V12.499Z" fill="#879298"/>
<path d="M22.8672 16H27.9883V14.8867H24.1562V7.51562H22.8672V16ZM28.9141 14.207C28.9082 15.4492 29.8516 16.1406 31.0586 16.1406C32.1133 16.1406 32.6992 15.6074 32.9453 15.1328H32.9922V16H34.2109V11.7695C34.2051 9.92383 32.7285 9.55469 31.7148 9.55469C30.209 9.55469 29.2246 10.3164 29.1133 11.3711H30.3555C30.4844 10.9023 30.9297 10.5625 31.668 10.5625C32.5176 10.5625 32.9629 10.9785 32.957 11.6992L32.9629 12.209C32.6699 12.2207 31.7148 12.2734 31.293 12.2969C30.1445 12.3789 28.9082 12.7539 28.9141 14.207ZM30.1328 14.2188C30.1328 13.5918 30.6484 13.2812 31.4688 13.2227C31.7676 13.2051 32.6758 13.1406 32.9629 13.123L32.9688 13.7031C32.9688 14.459 32.3594 15.1387 31.3398 15.1445C30.6367 15.1387 30.1328 14.8281 30.1328 14.2188ZM35.8281 16H37.0469V15.0039H37.1406C37.375 15.4199 37.8262 16.123 38.9805 16.1289C40.5215 16.123 41.6465 14.8867 41.6523 12.8359C41.6465 10.7617 40.5098 9.55469 38.9688 9.55469C37.791 9.55469 37.3691 10.2695 37.1406 10.668H37.0703V7.51562H35.8281V16ZM37.0469 12.8125C37.0469 11.4883 37.627 10.6152 38.6992 10.6211C39.8184 10.6152 40.375 11.5586 40.375 12.8125C40.375 14.0898 39.8008 15.0566 38.6992 15.0625C37.6445 15.0566 37.0469 14.1484 37.0469 12.8125ZM45.6367 16.1289C47.0371 16.1289 48.0156 15.4375 48.2969 14.4062H47.0312C46.8203 14.793 46.3574 15.0977 45.6484 15.0977C44.6055 15.0977 43.8906 14.4121 43.8555 13.1992H48.3789V12.7539C48.3789 10.4512 47.002 9.55469 45.5547 9.55469C43.7793 9.55469 42.6074 10.9023 42.6133 12.8594C42.6074 14.834 43.7617 16.1289 45.6367 16.1289ZM43.8613 12.2617C43.9141 11.3652 44.5645 10.5801 45.5664 10.5859C46.5215 10.5801 47.1484 11.2949 47.1484 12.2617H43.8613ZM50.875 7.51562H49.6211V16H50.875V7.51562Z" fill="#879298"/>
<rect x="0.5" y="0.5" width="61" height="23" rx="11.5" stroke="#D2DAE0"/>
</svg>
