<svg width="49" height="14" viewBox="0 0 49 14" fill="none" xmlns="http://www.w3.org/2000/svg">
<path d="M10.8555 0.830078H9.11914V2.56641H6.26855C5.66699 1.93066 4.80566 1.54785 3.8418 1.54102C1.95508 1.54785 0.519531 2.9082 0.533203 4.78125C0.519531 6.62695 1.95508 7.99414 3.8418 7.99414C4.8125 7.99414 5.67383 7.60449 6.27539 6.96875H9.11914V9.92188H10.8555V0.830078ZM2.1875 4.78125C2.18066 3.72852 2.87109 3.09961 3.8418 3.09961C4.75781 3.09961 5.46191 3.72852 5.46875 4.78125C5.46191 5.82031 4.75781 6.44922 3.8418 6.44922C2.87109 6.44922 2.18066 5.82031 2.1875 4.78125ZM2.59766 13.0391H11.1562V11.6445H4.34766V9.00586H2.59766V13.0391ZM7.02051 3.96094H9.11914V5.57422H7.02734C7.08887 5.32129 7.12305 5.05469 7.12305 4.78125C7.12305 4.49414 7.08887 4.2207 7.02051 3.96094ZM22.3398 0.816406H20.5898V8.10352H22.3398V5.25977H24.0215V3.81055H22.3398V0.816406ZM12.4688 3.27734H19.8516V1.91016H17.0352V0.734375H15.2988V1.91016H12.4688V3.27734ZM13.0703 5.83398C13.0703 7.16016 14.3281 8.03516 16.1602 8.03516C17.9717 8.03516 19.2227 7.16016 19.2227 5.83398C19.2227 4.50781 17.9717 3.63281 16.1602 3.63281C14.3281 3.63281 13.0703 4.50781 13.0703 5.83398ZM14.1914 13.1211H22.3398V8.58203H20.5898V9.52539H15.9277V8.58203H14.1914V13.1211ZM14.7793 5.83398C14.7725 5.25293 15.3262 4.9043 16.1602 4.91797C17.001 4.9043 17.5684 5.25293 17.5684 5.83398C17.5684 6.43555 17.001 6.75684 16.1602 6.76367C15.3262 6.75684 14.7725 6.43555 14.7793 5.83398ZM15.9277 11.7539V10.8652H20.5898V11.7539H15.9277ZM34.6582 4.74023H27.6855V1.37695H25.9492V6.13477H34.6582V4.74023ZM24.5684 8.9375H27.1934V13.2578H28.9434V8.9375H31.5547V13.2578H33.3184V8.9375H35.916V7.54297H24.5684V8.9375ZM43.2168 2.45703V1.55469H41.3574V2.45703C41.3438 4.26172 39.7236 6.2168 36.9551 6.70898L37.707 8.1582C39.8604 7.7207 41.4736 6.49023 42.2939 4.91113C43.1006 6.50391 44.707 7.72754 46.8809 8.1582L47.6465 6.70898C44.8301 6.23047 43.21 4.28223 43.2168 2.45703ZM36.668 11.7266H48.0566V10.291H36.668V11.7266Z" fill="#14212B"/>
</svg>
