<svg width="24" height="20" viewBox="0 0 24 20" fill="none" xmlns="http://www.w3.org/2000/svg">
<path d="M20 1.75V16.5C19.9998 16.6249 20.0463 16.7455 20.1305 16.8378C20.2147 16.9301 20.3304 16.9876 20.4548 16.9989C20.5793 17.0102 20.7034 16.9745 20.8028 16.8988C20.9023 16.8231 20.9697 16.7129 20.992 16.59L21 16.5V3H22.25C22.6892 3.00002 23.1123 3.16517 23.4354 3.46268C23.7585 3.76019 23.9579 4.1683 23.994 4.606L24 4.75V16.75C24.0001 17.5801 23.6824 18.3788 23.1123 18.9822C22.5422 19.5856 21.7628 19.948 20.934 19.995L20.75 20H3.25C2.41986 20.0001 1.62117 19.6824 1.01777 19.1123C0.414367 18.5422 0.0519987 17.7628 0.00500011 16.934L0 16.75V1.75C1.64046e-05 1.31081 0.165171 0.887682 0.46268 0.564609C0.760189 0.241536 1.1683 0.0421391 1.606 0.00600004L1.75 0H18.25C18.6892 1.64046e-05 19.1123 0.165171 19.4354 0.46268C19.7585 0.760189 19.9579 1.1683 19.994 1.606L20 1.75ZM7.747 9.004H5.25C4.81081 9.00402 4.38768 9.16917 4.06461 9.46668C3.74154 9.76419 3.54214 10.1723 3.506 10.61L3.5 10.754V13.25C3.50002 13.6892 3.66517 14.1123 3.96268 14.4354C4.26019 14.7585 4.6683 14.9579 5.106 14.994L5.25 15H7.747C8.18635 15 8.60961 14.8347 8.93271 14.537C9.25581 14.2392 9.4551 13.8309 9.491 13.393L9.496 13.25V10.754C9.49623 10.3146 9.33119 9.89126 9.03366 9.56798C8.73613 9.24469 8.32787 9.04515 7.89 9.009L7.747 9.004ZM15.75 13.5H12.25L12.148 13.507C11.9685 13.5317 11.804 13.6206 11.6849 13.7571C11.5658 13.8937 11.5002 14.0688 11.5002 14.25C11.5002 14.4312 11.5658 14.6063 11.6849 14.7429C11.804 14.8794 11.9685 14.9683 12.148 14.993L12.25 15H15.75L15.852 14.993C16.0315 14.9683 16.196 14.8794 16.3151 14.7429C16.4342 14.6063 16.4998 14.4312 16.4998 14.25C16.4998 14.0688 16.4342 13.8937 16.3151 13.7571C16.196 13.6206 16.0315 13.5317 15.852 13.507L15.75 13.5ZM5.25 10.504H7.747C7.80319 10.504 7.85772 10.523 7.90181 10.5578C7.9459 10.5927 7.97696 10.6413 7.99 10.696L7.997 10.754V13.25C7.99691 13.3063 7.9778 13.361 7.94277 13.4051C7.90774 13.4492 7.85884 13.4802 7.804 13.493L7.747 13.5H5.25C5.19368 13.4999 5.13904 13.4808 5.09493 13.4458C5.05083 13.4107 5.01984 13.3618 5.007 13.307L5 13.25V10.754C4.99987 10.6975 5.01887 10.6426 5.05392 10.5983C5.08897 10.554 5.13799 10.5229 5.193 10.51L5.25 10.504ZM15.75 9.004H12.25L12.148 9.01C11.9677 9.03389 11.8023 9.12246 11.6824 9.25923C11.5626 9.396 11.4965 9.57165 11.4965 9.7535C11.4965 9.93535 11.5626 10.111 11.6824 10.2478C11.8023 10.3845 11.9677 10.4731 12.148 10.497L12.25 10.504H15.75L15.852 10.497C16.0323 10.4731 16.1977 10.3845 16.3176 10.2478C16.4374 10.111 16.5035 9.93535 16.5035 9.7535C16.5035 9.57165 16.4374 9.396 16.3176 9.25923C16.1977 9.12246 16.0323 9.03389 15.852 9.01L15.75 9.004ZM15.75 4.497H4.25L4.148 4.504C3.96849 4.5287 3.80399 4.61755 3.68491 4.75414C3.56583 4.89072 3.50023 5.0658 3.50023 5.247C3.50023 5.4282 3.56583 5.60328 3.68491 5.73986C3.80399 5.87645 3.96849 5.9653 4.148 5.99L4.25 5.997H15.75L15.852 5.99C16.0315 5.9653 16.196 5.87645 16.3151 5.73986C16.4342 5.60328 16.4998 5.4282 16.4998 5.247C16.4998 5.0658 16.4342 4.89072 16.3151 4.75414C16.196 4.61755 16.0315 4.5287 15.852 4.504L15.75 4.497Z" fill="#4362D0"/>
</svg>
