<svg width="24" height="24" viewBox="0 0 24 24" fill="none" xmlns="http://www.w3.org/2000/svg">
<path d="M20 3.75V18.5C19.9998 18.6249 20.0463 18.7455 20.1305 18.8378C20.2147 18.9301 20.3304 18.9876 20.4548 18.9989C20.5793 19.0102 20.7034 18.9745 20.8028 18.8988C20.9023 18.8231 20.9697 18.7129 20.992 18.59L21 18.5V5H22.25C22.6892 5.00002 23.1123 5.16517 23.4354 5.46268C23.7585 5.76019 23.9579 6.1683 23.994 6.606L24 6.75V18.75C24.0001 19.5801 23.6824 20.3788 23.1123 20.9822C22.5422 21.5856 21.7628 21.948 20.934 21.995L20.75 22H3.25C2.41986 22.0001 1.62117 21.6824 1.01777 21.1123C0.414367 20.5422 0.0519987 19.7628 0.00500011 18.934L0 18.75V3.75C1.64046e-05 3.31081 0.165171 2.88768 0.46268 2.56461C0.760189 2.24154 1.1683 2.04214 1.606 2.006L1.75 2H18.25C18.6892 2.00002 19.1123 2.16517 19.4354 2.46268C19.7585 2.76019 19.9579 3.1683 19.994 3.606L20 3.75ZM7.747 11.004H5.25C4.81081 11.004 4.38768 11.1692 4.06461 11.4667C3.74154 11.7642 3.54214 12.1723 3.506 12.61L3.5 12.754V15.25C3.50002 15.6892 3.66517 16.1123 3.96268 16.4354C4.26019 16.7585 4.6683 16.9579 5.106 16.994L5.25 17H7.747C8.18635 17 8.60961 16.8347 8.93271 16.537C9.25581 16.2392 9.4551 15.8309 9.491 15.393L9.496 15.25V12.754C9.49623 12.3146 9.33119 11.8913 9.03366 11.568C8.73613 11.2447 8.32787 11.0452 7.89 11.009L7.747 11.004ZM15.75 15.5H12.25L12.148 15.507C11.9685 15.5317 11.804 15.6206 11.6849 15.7571C11.5658 15.8937 11.5002 16.0688 11.5002 16.25C11.5002 16.4312 11.5658 16.6063 11.6849 16.7429C11.804 16.8794 11.9685 16.9683 12.148 16.993L12.25 17H15.75L15.852 16.993C16.0315 16.9683 16.196 16.8794 16.3151 16.7429C16.4342 16.6063 16.4998 16.4312 16.4998 16.25C16.4998 16.0688 16.4342 15.8937 16.3151 15.7571C16.196 15.6206 16.0315 15.5317 15.852 15.507L15.75 15.5ZM5.25 12.504H7.747C7.80319 12.504 7.85772 12.523 7.90181 12.5578C7.9459 12.5927 7.97696 12.6413 7.99 12.696L7.997 12.754V15.25C7.99691 15.3063 7.9778 15.361 7.94277 15.4051C7.90774 15.4492 7.85884 15.4802 7.804 15.493L7.747 15.5H5.25C5.19368 15.4999 5.13904 15.4808 5.09493 15.4458C5.05083 15.4107 5.01984 15.3618 5.007 15.307L5 15.25V12.754C4.99987 12.6975 5.01887 12.6426 5.05392 12.5983C5.08897 12.554 5.13799 12.5229 5.193 12.51L5.25 12.504ZM15.75 11.004H12.25L12.148 11.01C11.9677 11.0339 11.8023 11.1225 11.6824 11.2592C11.5626 11.396 11.4965 11.5717 11.4965 11.7535C11.4965 11.9353 11.5626 12.111 11.6824 12.2478C11.8023 12.3845 11.9677 12.4731 12.148 12.497L12.25 12.504H15.75L15.852 12.497C16.0323 12.4731 16.1977 12.3845 16.3176 12.2478C16.4374 12.111 16.5035 11.9353 16.5035 11.7535C16.5035 11.5717 16.4374 11.396 16.3176 11.2592C16.1977 11.1225 16.0323 11.0339 15.852 11.01L15.75 11.004ZM15.75 6.497H4.25L4.148 6.504C3.96849 6.5287 3.80399 6.61755 3.68491 6.75414C3.56583 6.89072 3.50023 7.0658 3.50023 7.247C3.50023 7.4282 3.56583 7.60328 3.68491 7.73986C3.80399 7.87645 3.96849 7.9653 4.148 7.99L4.25 7.997H15.75L15.852 7.99C16.0315 7.9653 16.196 7.87645 16.3151 7.73986C16.4342 7.60328 16.4998 7.4282 16.4998 7.247C16.4998 7.0658 16.4342 6.89072 16.3151 6.75414C16.196 6.61755 16.0315 6.5287 15.852 6.504L15.75 6.497Z" fill="#14212B"/>
</svg>
